<?xml version="1.0" standalone="no"?>
<!DOCTYPE svg PUBLIC "-//W3C//DTD SVG 20010904//EN"
 "http://www.w3.org/TR/2001/REC-SVG-20010904/DTD/svg10.dtd">
<svg version="1.0" xmlns="http://www.w3.org/2000/svg"
 width="572.000000pt" height="436.000000pt" viewBox="0 0 572.000000 436.000000"
 preserveAspectRatio="xMidYMid meet">

<g transform="translate(0.000000,436.000000) scale(0.100000,-0.100000)"
fill="#000000" stroke="none">
<path d="M1561 4184 c-542 -79 -980 -397 -1225 -890 -167 -337 -210 -713 -120
-1066 120 -475 424 -857 851 -1068 380 -187 812 -217 1211 -84 137 46 139 48
104 89 -26 31 -256 290 -292 328 -15 17 -19 17 -86 0 -100 -24 -370 -25 -475
0 -399 94 -722 399 -833 789 -145 506 82 1041 548 1292 372 201 829 173 1176
-73 138 -97 285 -270 364 -429 147 -293 140 -699 -18 -999 -35 -65 -137 -213
-147 -213 -4 0 -75 79 -159 176 -84 96 -158 178 -164 180 -6 2 -125 3 -264 2
l-252 -3 306 -350 c169 -192 357 -408 419 -480 61 -71 118 -137 126 -145 8 -8
57 -64 109 -125 52 -60 100 -115 106 -122 7 -7 97 -110 200 -228 l189 -217 3
287 2 286 -141 167 c-78 92 -149 174 -156 184 -13 14 -8 24 47 90 174 207 291
449 352 730 19 87 22 134 22 303 0 170 -3 216 -23 305 -93 434 -325 784 -679
1024 -321 218 -730 314 -1101 260z"/>
<path d="M3095 3790 l-40 -5 27 -18 c61 -42 240 -273 297 -385 l21 -42 578 0
c649 0 659 -1 799 -70 147 -73 278 -225 334 -390 27 -80 37 -247 20 -345 -46
-264 -269 -506 -527 -572 -62 -16 -117 -18 -554 -15 -267 2 -518 0 -557 -3
l-73 -7 0 -859 0 -859 235 0 235 0 0 645 0 645 313 0 c451 1 579 20 779 120
311 156 519 414 609 759 26 99 36 327 19 442 -23 164 -99 350 -198 488 -57 81
-184 207 -266 266 -134 96 -325 173 -481 194 -81 11 -1490 21 -1570 11z"/>
</g>
</svg>
